<svg viewBox="0 0 50 50" xmlns="http://www.w3.org/2000/svg"><g fill="none" fill-rule="evenodd"><path d="M6 0h38a6 6 0 0 1 6 6v38a6 6 0 0 1-6 6H6a6 6 0 0 1-6-6V6a6 6 0 0 1 6-6Z" fill="#5230DC" class="fill-5230dc"></path><path d="M26.445 21.096v-5.041h5.24l.577-7.075-11.57.003h-1.413v32.08l7.166-1.347V27.96h4.388l.103-6.863h-4.49Zm-18.067-10.4h9.353l.13-3.248h16.01l-.028 3.248h9.66l-.807 8.025.808 18.925-15.508-.807-.044 4.258-10.134 1.87-.049-5.026-9.41 1.27.76-19.422-.741-9.093Z" fill="#000000" class="fill-ffffff"></path></g></svg>